HIERARCHY
ROOT Hips
{
  OFFSET 0 0 0
  CHANNELS 6 Xposition Yposition Zposition Zrotation Yrotation Xrotation
  JOINT LeftThigh
  {
    OFFSET 8.409438 0 -5.917753
    CHANNELS 3 Zrotation Yrotation Xrotation
    JOINT LeftLeg
    {
      OFFSET 0 0 -42.358652
      CHANNELS 3 Zrotation Yrotation Xrotation
      JOINT LeftFoot
      {
        OFFSET 0 0 -39.357303
        CHANNELS 3 Zrotation Yrotation Xrotation
      }
    }
  }
  JOINT RightThigh
  {
    OFFSET -8.409438 0 -5.917753
    CHANNELS 3 Zrotation Yrotation Xrotation
    JOINT RightLeg
    {
      OFFSET 0 0 -42.358652
      CHANNELS 3 Zrotation Yrotation Xrotation
      JOINT RightFoot
      {
        OFFSET 0 0 -39.357303
        CHANNELS 3 Zrotation Yrotation Xrotation
      }
    }
  }
  JOINT SpineLow
  {
    OFFSET 0 0 4.719101
    CHANNELS 3 Zrotation Yrotation Xrotation
    JOINT SpineMid
    {
      OFFSET 0 0 12.899191
      CHANNELS 3 Zrotation Yrotation Xrotation
      JOINT Chest
      {
        OFFSET 0 0 12.899191
        CHANNELS 3 Zrotation Yrotation Xrotation
        JOINT LeftShoulder
        {
          OFFSET 7.550562 1.41573 9.438202
          CHANNELS 3 Zrotation Yrotation Xrotation
          JOINT LeftArm
          {
            OFFSET 9.155056 0 4.247191
            CHANNELS 3 Zrotation Yrotation Xrotation
            JOINT LeftForearm
            {
              OFFSET 0 0 25.771955
              CHANNELS 3 Zrotation Yrotation Xrotation
              JOINT LeftHand
              {
                OFFSET 0 0 25.197169
                CHANNELS 3 Zrotation Yrotation Xrotation
              }
            }
          }
        }
        JOINT RightShoulder
        {
          OFFSET -7.550562 1.41573 9.438202
          CHANNELS 3 Zrotation Yrotation Xrotation
          JOINT RightArm
          {
            OFFSET -9.155056 0 4.247191
            CHANNELS 3 Zrotation Yrotation Xrotation
            JOINT RightForearm
            {
              OFFSET 0 0 -25.771955
              CHANNELS 3 Zrotation Yrotation Xrotation
              JOINT RightHand
              {
                OFFSET 0 0 -25.197169
                CHANNELS 3 Zrotation Yrotation Xrotation
              }
            }
          }
        }
        JOINT Neck
        {
          OFFSET 0 0 15.101124
          CHANNELS 3 Zrotation Yrotation Xrotation
          JOINT Head
          {
            OFFSET 0 0 11.325843
            CHANNELS 3 Zrotation Yrotation Xrotation
            End Site
            {
              OFFSET 0 0 14.157303
            }
          }
        }
      }
    }
  }
}
MOTION
Frames: 5
Frame Time: 0.0
0.0  93.25843  0.0  18.593581  -7.008268  -119.177266  45.413458  -7.604632  -100.584395  12.288774  33.973108  108.257707  -10.976374  -1.063279  -2.397739  -6.570372  13.198574  15.443332  7.376653  11.062714  15.17049  3.150658  1.736472  0.846101  2.353996  0.897413  2.577837  6.523863  2.196459  7.128357  6.523863  2.196459  7.128357  -12.477065  20.435422  12.008551  -178.980607  47.163546  -135.339632  -21.431246  -19.700894  82.343448  43.216922  -23.015325  18.454802  5.735233  -10.167549  31.70697  81.212453  64.054702  27.299591  -26.083391  19.219403  -53.266875  90.339813  -6.110125  -24.695749  -0.932087  6.62961  9.559827  -0.802646  4.959095  7.17201  
0.0  93.25843  0.0  19.280019  -7.620145  -119.612422  47.326917  -9.449606  -102.787963  17.149238  35.362066  110.218003  -9.365634  -1.793559  -1.29902  -5.878338  13.502026  15.768085  7.892814  11.313009  15.567004  3.264094  1.847952  0.848483  1.959312  0.830395  2.73011  5.443041  2.043801  7.526355  5.443041  2.043801  7.526356  -8.62897  22.489526  10.708998  -177.908744  42.146663  -137.920378  -21.275754  -11.000811  82.069587  51.410947  -21.839909  19.724454  7.800003  -8.731476  32.300234  79.368387  61.119839  26.644141  -25.251544  14.780603  -53.06854  93.393577  -11.267831  -26.751025  0.7899  7.381536  9.033848  0.482062  5.549247  6.756404  
0.0  93.25843  0.0  19.589477  -7.778182  -119.901464  47.674916  -9.801404  -101.488688  16.319834  36.742673  108.628854  -9.315346  -1.177873  -1.646623  -5.049358  13.489167  16.295622  7.907871  11.341227  15.835303  3.253396  2.025156  0.941177  1.629902  0.776509  2.830833  4.540184  1.92746  7.788149  4.540183  1.92746  7.788149  -5.380698  24.332805  10.529138  -179.346087  39.205149  -140.772023  -21.499992  -9.914139  79.430737  58.681622  -20.925041  22.282386  9.6483  -7.813946  33.05502  76.470876  58.143776  25.424588  -24.161931  11.695662  -52.310399  93.711773  -11.938143  -27.325601  2.06186  7.834127  8.800644  1.430874  5.906745  6.563674  
0.0  93.25843  0.0  19.51703  -7.606537  -119.951172  47.019814  -8.94776  -103.114265  16.188562  35.788756  110.916646  -10.911406  -0.948572  -2.256083  -4.254139  13.117692  16.770115  7.667729  11.287194  16.111637  3.077221  2.143249  1.0427  1.441917  0.725558  2.860818  4.021693  1.808835  7.861653  4.021693  1.808835  7.861653  -2.419561  25.322914  12.167926  -179.889377  38.867597  -143.392349  -20.03743  -9.734074  76.414813  62.961289  -19.714737  25.042178  10.659732  -7.186746  34.347334  71.806204  55.990018  22.89088  -22.500201  10.535026  -52.308834  94.576742  -12.097315  -24.170667  2.643808  7.912959  8.78118  1.865794  5.974207  6.541098  
0.0  93.25843  0.0  19.104144  -7.21928  -119.828152  45.855264  -9.281096  -102.587201  15.985869  35.624081  110.842988  -10.60193  -0.453925  -2.177933  -3.844371  12.547645  17.028593  7.461726  11.194555  16.45148  3.001224  2.214716  1.169949  1.637138  0.708313  2.906062  4.553548  1.735361  7.988905  4.553548  1.735361  7.988905  -2.219777  24.728096  13.95911  177.901538  37.687229  -146.689322  -17.204088  -12.921761  75.271905  61.411489  -20.411529  25.864952  9.199304  -7.421794  34.791489  67.838186  54.018893  21.410022  -20.391435  10.421905  -52.490566  96.828924  -12.584642  -23.701173  1.767182  7.386897  8.66912  1.218522  5.566568  6.471402  
